#!OML:ASF F:\VICON\USERDATA\INSTALL\rory3\rory3.ASF
:FULLY-SPECIFIED
:DEGREES
20
root 0.3389180950626613 17.912285027962938 -13.070630761226806 -0.7961279362096019 -1.7246177052482738 -8.075178290938148
lfemur -29.960794772532864 -2.4236047768881113 -9.730705761627677
ltibia 37.202475542205356
lfoot -3.499111789764174 3.0946435529682566
ltoes -5.510644154101945
rfemur 0.6222511323400823 5.420265653053393 35.89173138860678
rtibia 25.51924305087949
rfoot -19.684761197023775 -12.13222469765963
rtoes -1.6201618448538895
lowerback 11.058918011090093 1.4297086096712082 5.928134133556633
upperback 0.28316470254211545 2.8104175506795386 2.5750576811380257
thorax -5.7621930405683255 1.2513666891308415 -1.0597952849556476
lowerneck -16.652868205215523 -3.34023040567708 -1.502901878047921
upperneck 20.96109526751445 -4.191683652764204 -0.2051216060962382
head 9.38659844587954 -2.0947985210920774 -0.3623115641701322
lclavicle -2.027721893718167e-15 -7.125406802996159e-16
lhumerus -33.444712846618586 9.68740551730156 80.6088088285807
lradius 24.22520263054369
lwrist 4.149710093757584
lhand -26.412052785897338 33.49460379571019
lfingers 7.12502
lthumb 0.14777569201270024 63.46884991241559
rclavicle -2.027721893718167e-15 -7.125406802996159e-16
rhumerus -21.60660322324209 -10.02096309423757 -82.35680044452035
rradius 30.33796928060163
rwrist -0.7624723757022984
rhand -19.21653574449333 23.075817898153062
rfingers 7.12502
rthumb 7.096089478215155 -6.784083187851715
21
root 0.42036725716120443 17.855592805264255 -11.070201028714663 -0.18757341500995972 -2.2587848910146793 -8.099273255464748
lfemur -26.493343444500283 -5.184056595912447 -9.042197445294008
ltibia 20.76464694333867
lfoot -4.183782805380035 5.37148870806798
ltoes -7.995276090680059
rfemur 3.806689723447919 5.741619658917711 35.58588773841358
rtibia 23.20630156821457
rfoot -20.34039208771111 -11.776627961767634
rtoes -3.7062446718468105
lowerback 10.669199401562206 1.8078853949195304 6.485576422674966
upperback 0.023670732669701128 3.286472744286636 2.4988574633177727
thorax -5.687204743472299 1.5184342040511782 -1.6994063062332938
lowerneck -16.83505806949624 -3.4703028882230553 -1.52579866191242
upperneck 21.062316312075843 -4.528039834273112 0.025535368610901
head 9.448408229534504 -2.1551056944960973 -0.3006146306488626
lclavicle -2.0301761410725243e-15 -7.141270456897472e-16
lhumerus -34.14765480160235 10.18150534127246 79.82016374851155
lradius 23.31956420018414
lwrist 3.150395515969837
lhand -27.93635430431915 22.96092668035309
lfingers 7.12502
lthumb -1.4455256153592904 52.85319832970779
rclavicle -2.030922888108816e-15 -7.145848174844449e-16
rhumerus -20.065331332099554 -9.693421931703089 -82.42175207656474
rradius 32.46061835444934
rwrist -1.4117471034648776
rhand -18.920891486836727 23.734472533123157
rfingers 7.12502
rthumb 7.355706288802091 -5.868714887502845
22
root 0.5233030289198305 17.789266127961497 -9.33856697623208 0.024812951323129884 -2.7326890969476447 -7.491809789338733
lfemur -24.60934127406466 -5.344143428163884 -10.117178311245226
ltibia 11.80470906281342
lfoot -4.74951448077255 6.799694410397177
ltoes -9.301782970121579
rfemur 6.15406968621099 5.88360929603166 34.63974660637193
rtibia 23.275492617619147
rfoot -20.600359736000783 -10.639270379584653
rtoes -7.90874524644925
lowerback 10.34210823075974 2.126416082637084 6.317403856957648
upperback -0.07152991435498535 3.7037995063823623 2.3322197122746635
thorax -5.520634592156451 1.713426217791967 -2.037572593613956
lowerneck -16.93836355274988 -3.546454590421288 -1.480461723929263
upperneck 21.04215065314554 -4.741583357937917 0.2679061391288171
head 9.449528491292712 -2.2263840620771944 -0.25041671423298206
lclavicle -2.029561122287722e-15 -7.137326616245772e-16
lhumerus -34.74224951290664 10.512637059628606 79.08408853412202
lradius 22.226777156235233
lwrist 1.2593985717262903
lhand -28.23363911047461 21.173484305929197
lfingers 7.12502
lthumb -1.3738082000152798 51.960387701005274
rclavicle -2.030437664545641e-15 -7.142750210315004e-16
rhumerus -19.559228603718907 -10.344065197177525 -82.28189198420046
rradius 33.74432086132675
rwrist -1.79080032415097
rhand -18.788555597766702 23.58558122812462
rfingers 7.12502
rthumb 7.606039599263825 -6.2551561179068464
23
root 0.6276330941154327 17.774174222793764 -7.762318996524186 -0.6691169404056478 -2.351083758223769 -6.443212153869838
lfemur -24.1101794863484 -4.3261569293626785 -12.665325097249333
ltibia 15.570215757155196
lfoot -2.4376810019667348 3.3250489710364777
ltoes -9.443178524621272
rfemur 7.642116901913946 5.291343973419333 33.21977775885241
rtibia 25.719357688283587
rfoot -19.506930368665273 -9.20481310255863
rtoes -10.604662362689027
lowerback 10.353296092497624 2.1562500395552235 5.7672503531145365
upperback -0.11153528833170485 3.707535976517719 2.0993850736048074
thorax -5.471851610655429 1.733777736132593 -2.0155194470041753
lowerneck -16.7750797538021 -3.6057185555614937 -1.5139121709642331
upperneck 21.218763099767724 -4.8638427803337985 0.28843501624797785
head 9.514319378487874 -2.2618437567632075 -0.25481671032648995
lclavicle -2.030953793671674e-15 -7.146264240718494e-16
lhumerus -35.12836607262195 10.849627665181815 78.39332874403698
lradius 20.883092522274133
lwrist -0.7162105638386471
lhand -27.591169806616882 22.68325381130929
lfingers 7.12502
lthumb -0.7972791065123572 52.94823009559319
rclavicle -2.030921719658987e-15 -7.145842041815659e-16
rhumerus -20.073943213344798 -11.716730372443136 -81.95342098687344
rradius 34.28445776988151
rwrist -1.4484394459173462
rhand -18.816704006111312 23.478284556885818
rfingers 7.12502
rthumb 7.4636489535927355 -5.702605835215053
24
root 0.7317059709393234 17.825351686836207 -6.768778181117742 -1.7935122370551624 -1.6724546682742427 -4.629738265312259
lfemur -22.46797283334479 -3.86141350751356 -15.80116359029335
ltibia 19.991154779800066
lfoot 1.929774985023366 -2.3096750172568097
ltoes -5.652428303008055
rfemur 7.302792619158771 4.199036435118709 30.58602004328026
rtibia 30.869967193474494
rfoot -15.833687286241553 -7.039237333808067
rtoes -11.952815010304583
lowerback 10.34632901507254 2.0910200776929218 4.264814134365065
upperback -0.0192260236930666 3.4292572500990732 1.710071302962584
thorax -5.426201917900769 1.6100960550710353 -1.6919296577882685
lowerneck -16.47642121376929 -3.7104937577369537 -1.5557378681833671
upperneck 21.236768527252018 -5.0552870732075394 0.38181902644579924
head 9.464854994638113 -2.325543165419741 -0.25276962916994855
lclavicle -2.0295789116352135e-15 -7.13742525075356e-16
lhumerus -35.345786758961765 11.712458283664471 77.38399415250828
lradius 19.17752793323526
lwrist -0.8691965953192575
lhand -27.344073071610865 22.5379316760702
lfingers 7.12502
lthumb -0.6714236897240573 53.15000535213207
rclavicle -2.0270140316080017e-15 -7.120890116671361e-16
rhumerus -21.783838638948815 -13.557290727599174 -81.37714430032102
rradius 34.20855502721624
rwrist -0.7841764069293413
rhand -18.84170379599444 23.954728938659077
rfingers 7.12502
rthumb 7.545971554124723 -5.097580261936951
